<svg xmlns="http://www.w3.org/2000/svg" width="64" height="64" viewBox="0 0 16 16">
<!-- Critic: stern brows, red shirt -->
<rect x="4" y="0" width="8" height="1" fill="#3f3f46"/>
<rect x="3" y="1" width="10" height="2" fill="#3f3f46"/>
<rect x="3" y="3" width="10" height="1" fill="#fcd9b6"/>
<rect x="5" y="3" width="2" height="1" fill="#3f3f46"/>
<rect x="9" y="3" width="2" height="1" fill="#3f3f46"/>
<rect x="3" y="4" width="10" height="1" fill="#fcd9b6"/>
<rect x="5" y="4" width="1" height="1" fill="#fff"/>
<rect x="6" y="4" width="1" height="1" fill="#7f1d1d"/>
<rect x="9" y="4" width="1" height="1" fill="#fff"/>
<rect x="10" y="4" width="1" height="1" fill="#7f1d1d"/>
<rect x="3" y="5" width="10" height="1" fill="#fcd9b6"/>
<rect x="3" y="6" width="10" height="1" fill="#fcd9b6"/>
<rect x="6" y="6" width="4" height="1" fill="#b5715a"/>
<rect x="5" y="7" width="6" height="1" fill="#fcd9b6"/>
<rect x="4" y="8" width="8" height="1" fill="#dc2626"/>
<rect x="3" y="9" width="10" height="3" fill="#dc2626"/>
<rect x="3" y="10" width="10" height="2" fill="#991b1b"/>
<rect x="7" y="9" width="2" height="1" fill="#fca5a5"/>
<rect x="4" y="12" width="3" height="2" fill="#27272a"/>
<rect x="9" y="12" width="3" height="2" fill="#27272a"/>
</svg>
