<svg xmlns="http://www.w3.org/2000/svg" width="64" height="64" viewBox="0 0 16 16">
<!-- Figma: designer with headset, fuchsia shirt -->
<rect x="4" y="0" width="8" height="1" fill="#581c87"/>
<rect x="3" y="1" width="10" height="2" fill="#581c87"/>
<rect x="2" y="2" width="1" height="4" fill="#a21caf"/>
<rect x="3" y="6" width="1" height="2" fill="#a21caf"/>
<rect x="3" y="8" width="1" height="1" fill="#f0abfc"/>
<rect x="3" y="3" width="10" height="1" fill="#fcd9b6"/>
<rect x="3" y="4" width="10" height="1" fill="#fcd9b6"/>
<rect x="5" y="4" width="1" height="1" fill="#fff"/>
<rect x="6" y="4" width="1" height="1" fill="#701a75"/>
<rect x="9" y="4" width="1" height="1" fill="#fff"/>
<rect x="10" y="4" width="1" height="1" fill="#701a75"/>
<rect x="3" y="5" width="10" height="1" fill="#fcd9b6"/>
<rect x="3" y="6" width="10" height="1" fill="#fcd9b6"/>
<rect x="7" y="6" width="2" height="1" fill="#b5715a"/>
<rect x="5" y="7" width="6" height="1" fill="#fcd9b6"/>
<rect x="4" y="8" width="8" height="1" fill="#e879f9"/>
<rect x="3" y="9" width="10" height="3" fill="#e879f9"/>
<rect x="3" y="10" width="10" height="2" fill="#c026d3"/>
<rect x="6" y="9" width="1" height="1" fill="#f5d0fe"/>
<rect x="9" y="9" width="1" height="1" fill="#f5d0fe"/>
<rect x="4" y="12" width="3" height="2" fill="#1e293b"/>
<rect x="9" y="12" width="3" height="2" fill="#1e293b"/>
</svg>
