<svg xmlns="http://www.w3.org/2000/svg" width="64" height="64" viewBox="0 0 16 16">
<!-- Noah: verifier with check badge, emerald shirt -->
<rect x="4" y="0" width="8" height="1" fill="#422006"/>
<rect x="3" y="1" width="10" height="2" fill="#422006"/>
<rect x="3" y="3" width="10" height="1" fill="#fcd9b6"/>
<rect x="3" y="4" width="10" height="1" fill="#fcd9b6"/>
<rect x="5" y="4" width="1" height="1" fill="#fff"/>
<rect x="6" y="4" width="1" height="1" fill="#064e3b"/>
<rect x="9" y="4" width="1" height="1" fill="#fff"/>
<rect x="10" y="4" width="1" height="1" fill="#064e3b"/>
<rect x="3" y="5" width="10" height="1" fill="#fcd9b6"/>
<rect x="3" y="6" width="10" height="1" fill="#fcd9b6"/>
<rect x="7" y="6" width="2" height="1" fill="#b5715a"/>
<rect x="5" y="7" width="6" height="1" fill="#fcd9b6"/>
<rect x="4" y="8" width="8" height="1" fill="#10b981"/>
<rect x="3" y="9" width="10" height="3" fill="#10b981"/>
<rect x="3" y="10" width="10" height="2" fill="#059669"/>
<rect x="6" y="10" width="1" height="1" fill="#ecfdf5"/>
<rect x="7" y="11" width="1" height="1" fill="#ecfdf5"/>
<rect x="8" y="10" width="1" height="1" fill="#ecfdf5"/>
<rect x="9" y="9" width="1" height="1" fill="#ecfdf5"/>
<rect x="4" y="12" width="3" height="2" fill="#1e3a5f"/>
<rect x="9" y="12" width="3" height="2" fill="#1e3a5f"/>
</svg>
