<svg xmlns="http://www.w3.org/2000/svg" width="64" height="64" viewBox="0 0 16 16">
<!-- Simon: CEO in a sharp suit, purple tie -->
<rect x="4" y="0" width="8" height="1" fill="#5b3a1a"/>
<rect x="3" y="1" width="10" height="2" fill="#5b3a1a"/>
<rect x="3" y="3" width="10" height="1" fill="#fcd9b6"/>
<rect x="3" y="4" width="10" height="1" fill="#fcd9b6"/>
<rect x="5" y="4" width="1" height="1" fill="#fff"/>
<rect x="6" y="4" width="1" height="1" fill="#312e81"/>
<rect x="9" y="4" width="1" height="1" fill="#fff"/>
<rect x="10" y="4" width="1" height="1" fill="#312e81"/>
<rect x="3" y="5" width="10" height="1" fill="#fcd9b6"/>
<rect x="3" y="6" width="10" height="1" fill="#fcd9b6"/>
<rect x="7" y="6" width="2" height="1" fill="#b5715a"/>
<rect x="5" y="7" width="6" height="1" fill="#fcd9b6"/>
<rect x="3" y="8" width="10" height="1" fill="#1e293b"/>
<rect x="5" y="8" width="1" height="1" fill="#fff"/>
<rect x="10" y="8" width="1" height="1" fill="#fff"/>
<rect x="7" y="8" width="2" height="1" fill="#c084fc"/>
<rect x="3" y="9" width="10" height="3" fill="#1e293b"/>
<rect x="7" y="9" width="2" height="2" fill="#a855f7"/>
<rect x="4" y="12" width="3" height="2" fill="#0f172a"/>
<rect x="9" y="12" width="3" height="2" fill="#0f172a"/>
</svg>
