<svg xmlns="http://www.w3.org/2000/svg" width="64" height="64" viewBox="0 0 16 16">
<!-- Teacher: graduation cap, warm orange shirt -->
<rect x="2" y="1" width="12" height="1" fill="#18181b"/>
<rect x="6" y="0" width="4" height="1" fill="#27272a"/>
<rect x="12" y="1" width="1" height="3" fill="#fbbf24"/>
<rect x="4" y="2" width="8" height="1" fill="#3f3f46"/>
<rect x="3" y="3" width="10" height="1" fill="#fcd9b6"/>
<rect x="3" y="4" width="10" height="1" fill="#fcd9b6"/>
<rect x="5" y="4" width="1" height="1" fill="#fff"/>
<rect x="6" y="4" width="1" height="1" fill="#7c2d12"/>
<rect x="9" y="4" width="1" height="1" fill="#fff"/>
<rect x="10" y="4" width="1" height="1" fill="#7c2d12"/>
<rect x="3" y="5" width="10" height="1" fill="#fcd9b6"/>
<rect x="3" y="6" width="10" height="1" fill="#fcd9b6"/>
<rect x="7" y="6" width="2" height="1" fill="#b5715a"/>
<rect x="5" y="7" width="6" height="1" fill="#fcd9b6"/>
<rect x="4" y="8" width="8" height="1" fill="#f97316"/>
<rect x="3" y="9" width="10" height="3" fill="#f97316"/>
<rect x="3" y="10" width="10" height="2" fill="#ea580c"/>
<rect x="7" y="9" width="2" height="1" fill="#fed7aa"/>
<rect x="4" y="12" width="3" height="2" fill="#1e293b"/>
<rect x="9" y="12" width="3" height="2" fill="#1e293b"/>
</svg>
